<?xml version="1.0" encoding="iso-8859-1"?>
<!-- Generator: Adobe Illustrator 16.0.0, SVG Export Plug-In . SVG Version: 6.00 Build 0)  -->
<!DOCTYPE svg PUBLIC "-//W3C//DTD SVG 1.1//EN" "http://www.w3.org/Graphics/SVG/1.1/DTD/svg11.dtd">
<svg version="1.1" id="Capa_1" xmlns="http://www.w3.org/2000/svg" xmlns:xlink="http://www.w3.org/1999/xlink" x="0px" y="0px"
	 width="35.028px" height="35.027px" viewBox="0 0 35.028 35.027" style="enable-background:new 0 0 35.028 35.027;"
	 xml:space="preserve">
<g>
	<path d="M35.028,19.344c0-5.697-3.512-10.583-8.48-12.624V3.022c0-0.675-0.549-1.222-1.223-1.222H1.222
		c-0.675,0-1.221,0.547-1.221,1.222v4.271c0,0.673,0.546,1.22,1.221,1.22h11.895c-0.604,0.462-1.167,0.971-1.687,1.525H1.222
		c-0.675,0-1.221,0.547-1.221,1.22v4.271c0,0.675,0.546,1.221,1.221,1.221h6.771c-0.098,0.5-0.16,1.009-0.2,1.524h-6.57
		c-0.675,0-1.221,0.548-1.221,1.222v4.271c0,0.674,0.546,1.221,1.221,1.221h7.752c0.241,0.527,0.517,1.035,0.82,1.525H1.221
		C0.546,26.514,0,27.061,0,27.734v4.271c0,0.674,0.546,1.221,1.221,1.221h24.104c0.672,0,1.221-0.547,1.221-1.221v-0.037
		C31.514,29.928,35.028,25.039,35.028,19.344z M21.381,31.99c-6.972,0-12.644-5.674-12.644-12.646
		c0-6.973,5.672-12.646,12.644-12.646c6.973,0,12.646,5.673,12.646,12.646C34.028,26.316,28.354,31.99,21.381,31.99z M11.757,23.992
		c0.113,0.234,0.015,0.519-0.219,0.631c-0.066,0.033-0.137,0.048-0.206,0.048c-0.175,0-0.344-0.099-0.426-0.267
		c-0.766-1.578-1.155-3.275-1.159-5.043c0-0.262,0.21-0.473,0.472-0.475c0,0,0,0,0.001,0c0.262,0,0.473,0.211,0.474,0.473
		C10.697,20.982,11.054,22.541,11.757,23.992z M10.887,14.31c0.749-1.563,1.862-2.964,3.218-4.052
		c0.205-0.163,0.501-0.13,0.665,0.073c0.164,0.204,0.132,0.501-0.072,0.665c-1.247,1-2.271,2.288-2.958,3.724
		c-0.081,0.169-0.25,0.268-0.427,0.268c-0.067,0-0.138-0.015-0.203-0.046C10.873,14.829,10.775,14.546,10.887,14.31z M28.018,10.956
		c-0.205-0.162-0.238-0.459-0.076-0.664c0.162-0.205,0.461-0.24,0.664-0.077c1.361,1.08,2.482,2.474,3.242,4.032
		c0.115,0.235,0.018,0.518-0.217,0.632c-0.068,0.032-0.139,0.047-0.207,0.047c-0.176,0-0.346-0.097-0.428-0.265
		C30.301,13.229,29.27,11.95,28.018,10.956z M18.407,8.564c-0.06-0.254,0.101-0.508,0.355-0.567
		c1.688-0.388,3.486-0.394,5.174-0.015c0.256,0.057,0.416,0.31,0.357,0.564c-0.057,0.254-0.309,0.417-0.564,0.357
		c-1.551-0.348-3.207-0.343-4.754,0.014c-0.037,0.008-0.07,0.012-0.105,0.012C18.653,8.932,18.456,8.785,18.407,8.564z
		 M33.016,19.291v0.045c0,1.768-0.387,3.465-1.148,5.047c-0.082,0.168-0.25,0.266-0.428,0.266c-0.068,0-0.139-0.014-0.203-0.047
		c-0.236-0.111-0.334-0.396-0.221-0.631c0.699-1.451,1.055-3.012,1.055-4.635c0-0.262,0.211-0.494,0.473-0.494
		C32.807,18.842,33.016,19.031,33.016,19.291z M19.372,30.328c-0.051,0.219-0.246,0.367-0.461,0.367
		c-0.035,0-0.068-0.005-0.104-0.013c-1.69-0.381-3.304-1.155-4.666-2.239c-0.204-0.164-0.237-0.462-0.074-0.666
		c0.161-0.203,0.458-0.236,0.663-0.074c1.25,0.996,2.732,1.707,4.284,2.059C19.27,29.82,19.428,30.074,19.372,30.328z
		 M28.715,27.766c0.162,0.203,0.129,0.5-0.074,0.664c-1.359,1.086-2.973,1.864-4.66,2.25c-0.035,0.008-0.07,0.012-0.105,0.012
		c-0.215,0-0.41-0.147-0.461-0.367c-0.059-0.256,0.102-0.51,0.355-0.565c1.553-0.354,3.031-1.07,4.281-2.068
		C28.254,27.527,28.553,27.561,28.715,27.766z M21.514,18.475h-0.979v-2.172h0.979c0.568,0,0.965,0.036,1.188,0.106
		c0.221,0.07,0.391,0.188,0.508,0.354s0.176,0.366,0.176,0.601c0,0.226-0.062,0.424-0.186,0.598
		c-0.125,0.173-0.309,0.302-0.555,0.386C22.403,18.432,22.026,18.475,21.514,18.475z M23.372,20.338
		c0.123,0.184,0.186,0.406,0.186,0.672c0,0.311-0.086,0.576-0.26,0.797c-0.176,0.223-0.387,0.369-0.637,0.438
		c-0.248,0.069-0.561,0.106-0.939,0.106h-0.648c-0.217,0-0.35-0.014-0.398-0.037c-0.049-0.022-0.084-0.063-0.104-0.125
		c-0.02-0.045-0.027-0.205-0.033-0.479v-1.928h1.152c0.506,0,0.883,0.047,1.131,0.142C23.065,20.018,23.249,20.156,23.372,20.338z
		 M21.381,10.285c-4.999,0-9.051,4.053-9.051,9.053c0,4.999,4.052,9.052,9.051,9.052c5,0,9.053-4.054,9.053-9.052
		C30.434,14.337,26.381,10.285,21.381,10.285z M25.444,22.553c-0.285,0.396-0.688,0.701-1.209,0.909
		c-0.188,0.077-0.412,0.138-0.666,0.187v1.594h-1.51v-1.467c-0.037,0-0.072,0-0.111,0H21.09v1.467h-1.51v-1.467h-2.301v-1.231h0.352
		c0.234,0,0.392-0.021,0.476-0.062c0.082-0.041,0.143-0.098,0.177-0.172c0.034-0.076,0.051-0.242,0.051-0.502v-4.971
		c0-0.263-0.017-0.432-0.051-0.505c-0.034-0.072-0.093-0.13-0.177-0.172s-0.24-0.064-0.476-0.064h-0.352v-1.233h2.301v-1.466h1.51
		v1.466h0.971v-1.466h1.51v1.572c0.221,0.042,0.426,0.096,0.598,0.166c0.441,0.181,0.781,0.44,1.021,0.779
		c0.238,0.338,0.355,0.71,0.355,1.115c0,0.295-0.062,0.573-0.189,0.838c-0.125,0.264-0.307,0.496-0.545,0.698
		c-0.236,0.203-0.549,0.369-0.938,0.503c0.416,0.104,0.736,0.223,0.957,0.351c0.318,0.179,0.572,0.429,0.762,0.751
		c0.188,0.322,0.279,0.68,0.279,1.076C25.87,21.719,25.727,22.154,25.444,22.553z"/>
</g>
<g>
</g>
<g>
</g>
<g>
</g>
<g>
</g>
<g>
</g>
<g>
</g>
<g>
</g>
<g>
</g>
<g>
</g>
<g>
</g>
<g>
</g>
<g>
</g>
<g>
</g>
<g>
</g>
<g>
</g>
</svg>
