<?xml version="1.0" encoding="iso-8859-1"?>
<!-- Generator: Adobe Illustrator 16.0.0, SVG Export Plug-In . SVG Version: 6.00 Build 0)  -->
<!DOCTYPE svg PUBLIC "-//W3C//DTD SVG 1.1//EN" "http://www.w3.org/Graphics/SVG/1.1/DTD/svg11.dtd">
<svg version="1.1" id="Capa_1" xmlns="http://www.w3.org/2000/svg" xmlns:xlink="http://www.w3.org/1999/xlink" x="0px" y="0px"
	 width="36.472px" height="36.472px" viewBox="0 0 36.472 36.472" style="enable-background:new 0 0 36.472 36.472;"
	 xml:space="preserve">
<g>
	<path d="M16.946,16.836c-0.035-0.021-0.057-0.061-0.062-0.109c-0.006-0.036,0.01-0.166,0.045-0.377l0.278-1.504l0.903,0.166
		c0.395,0.076,0.681,0.164,0.855,0.274c0.18,0.107,0.303,0.248,0.375,0.405c0.065,0.161,0.082,0.343,0.043,0.549
		c-0.043,0.243-0.15,0.438-0.317,0.583c-0.169,0.147-0.354,0.229-0.56,0.249c-0.205,0.018-0.453,0-0.748-0.054l-0.506-0.099
		C17.084,16.89,16.983,16.862,16.946,16.836z M19.067,14.032c0.201-0.032,0.363-0.104,0.486-0.221
		c0.119-0.116,0.197-0.265,0.229-0.438c0.035-0.185,0.021-0.347-0.048-0.496c-0.066-0.144-0.183-0.258-0.347-0.348
		c-0.16-0.087-0.463-0.172-0.908-0.256l-0.762-0.143l-0.316,1.692l0.762,0.144C18.562,14.041,18.864,14.063,19.067,14.032z
		 M36.44,33.131c0,0.021-0.012,0.039-0.012,0.061c-0.004,0.064-0.021,0.13-0.041,0.195c-0.019,0.064-0.032,0.13-0.062,0.188
		c-0.01,0.02-0.009,0.038-0.02,0.057c-0.043,0.072-0.094,0.136-0.148,0.191c-0.005,0.006-0.009,0.014-0.014,0.02
		c-0.082,0.08-0.178,0.141-0.279,0.188c-0.026,0.014-0.055,0.021-0.081,0.033c-0.109,0.041-0.226,0.067-0.342,0.067
		c-0.001,0-0.001,0-0.002,0H1.042c-0.349,0-0.64-0.188-0.819-0.459c-0.03-0.039-0.065-0.074-0.092-0.121
		c-0.142-0.246-0.162-0.523-0.089-0.775V13.272c0-0.026,0.009-0.052,0.011-0.078c0.002-0.03,0.008-0.06,0.013-0.091
		c0.021-0.116,0.053-0.229,0.11-0.33v-0.001l0,0c0.06-0.103,0.142-0.188,0.232-0.265c0.023-0.019,0.046-0.037,0.07-0.054
		c0.021-0.016,0.039-0.034,0.062-0.049l17.199-9.93c0.309-0.179,0.691-0.179,1,0l17.199,9.93c0.172,0.099,0.302,0.247,0.388,0.419
		c0.008,0.012,0.02,0.018,0.024,0.027c0.027,0.049,0.031,0.102,0.051,0.152c0.001,0.002,0.002,0.006,0.003,0.01
		c0.073,0.203,0.093,0.416,0.034,0.615v19.502h0.003V33.131z M2.042,31.306l14.191-8.108L2.042,15.004V31.306z M15.923,12.228
		l-0.726,3.873c-0.038,0.203-0.072,0.328-0.112,0.382c-0.039,0.053-0.092,0.089-0.162,0.108c-0.07,0.021-0.195,0.013-0.379-0.022
		L14.27,16.52l-0.18,0.959l1.795,0.335l-0.213,1.145l1.176,0.221l0.213-1.143l0.668,0.123c0.031,0.008,0.06,0.01,0.089,0.016
		l-0.214,1.146l1.177,0.219l0.229-1.24c0.205-0.002,0.387-0.019,0.547-0.047c0.438-0.088,0.795-0.269,1.076-0.537
		c0.277-0.267,0.455-0.584,0.521-0.955c0.059-0.307,0.037-0.602-0.062-0.877c-0.102-0.278-0.265-0.51-0.484-0.697
		c-0.152-0.131-0.387-0.27-0.693-0.41c0.322-0.05,0.591-0.132,0.804-0.255c0.217-0.124,0.393-0.281,0.526-0.468
		c0.136-0.188,0.228-0.396,0.271-0.625c0.06-0.312,0.021-0.62-0.114-0.92c-0.138-0.299-0.365-0.549-0.685-0.754
		c-0.119-0.082-0.273-0.153-0.441-0.22l0.23-1.225l-1.175-0.22l-0.217,1.143l-0.755-0.143l0.215-1.144l-1.179-0.221l-0.215,1.146
		l-1.795-0.339l-0.179,0.959l0.274,0.056c0.183,0.03,0.305,0.07,0.361,0.117c0.059,0.045,0.096,0.098,0.108,0.16
		C15.971,11.888,15.962,12.021,15.923,12.228z M4.63,32.131h27.079l-13.471-7.774L4.63,32.131z M34.44,31.398V15.095l-14.19,8.108
		L34.44,31.398z M3.042,13.271l7.586,4.379c-0.377-0.933-0.59-1.949-0.59-3.017c0-4.445,3.604-8.049,8.049-8.049
		c4.445,0,8.051,3.604,8.051,8.049c0,1.183-0.263,2.303-0.721,3.313l8.104-4.631L18.242,4.494L3.042,13.271z"/>
</g>
<g>
</g>
<g>
</g>
<g>
</g>
<g>
</g>
<g>
</g>
<g>
</g>
<g>
</g>
<g>
</g>
<g>
</g>
<g>
</g>
<g>
</g>
<g>
</g>
<g>
</g>
<g>
</g>
<g>
</g>
</svg>
