<?xml version="1.0" encoding="iso-8859-1"?>
<!-- Generator: Adobe Illustrator 16.0.0, SVG Export Plug-In . SVG Version: 6.00 Build 0)  -->
<!DOCTYPE svg PUBLIC "-//W3C//DTD SVG 1.1//EN" "http://www.w3.org/Graphics/SVG/1.1/DTD/svg11.dtd">
<svg version="1.1" id="Capa_1" xmlns="http://www.w3.org/2000/svg" xmlns:xlink="http://www.w3.org/1999/xlink" x="0px" y="0px"
	 width="37.5px" height="37.5px" viewBox="0 0 37.5 37.5" style="enable-background:new 0 0 37.5 37.5;" xml:space="preserve">
<g>
	<path d="M22.203,18.855c-0.234-0.137-0.573-0.262-1.016-0.373c0.412-0.141,0.744-0.317,0.996-0.532
		c0.25-0.215,0.441-0.462,0.578-0.742c0.133-0.28,0.198-0.576,0.198-0.888c0-0.429-0.126-0.823-0.379-1.183
		c-0.252-0.358-0.613-0.634-1.083-0.826c-0.184-0.075-0.396-0.13-0.633-0.176v-1.667h-1.602v1.555h-1.029v-1.555h-1.601v1.555
		h-2.441v1.308h0.373c0.248,0,0.417,0.022,0.504,0.068c0.088,0.045,0.15,0.106,0.187,0.183c0.037,0.077,0.054,0.255,0.054,0.535
		v5.271c0,0.274-0.018,0.451-0.054,0.53c-0.036,0.08-0.098,0.142-0.187,0.185c-0.088,0.043-0.256,0.062-0.504,0.062h-0.373v1.309
		h2.441v1.555h1.601v-1.555h0.91c0.043,0,0.08,0,0.119,0v1.555h1.603v-1.688c0.271-0.051,0.505-0.116,0.706-0.198
		c0.553-0.221,0.979-0.543,1.281-0.965s0.453-0.884,0.453-1.385c0-0.42-0.1-0.801-0.297-1.143
		C22.811,19.311,22.541,19.045,22.203,18.855z M17.649,15.549h1.036c0.606,0,1.026,0.037,1.26,0.111
		c0.236,0.075,0.416,0.2,0.539,0.376c0.125,0.177,0.187,0.389,0.187,0.637c0,0.24-0.063,0.45-0.196,0.633
		c-0.131,0.184-0.326,0.32-0.586,0.41c-0.259,0.09-0.66,0.136-1.203,0.136H17.65L17.649,15.549L17.649,15.549z M20.577,21.389
		c-0.185,0.235-0.409,0.392-0.673,0.465c-0.264,0.074-0.596,0.111-0.997,0.111h-0.689c-0.23,0-0.372-0.013-0.423-0.038
		c-0.051-0.024-0.088-0.069-0.111-0.132c-0.018-0.05-0.029-0.22-0.034-0.509V19.24h1.224c0.537,0,0.937,0.05,1.196,0.148
		c0.262,0.101,0.457,0.245,0.589,0.439c0.131,0.193,0.196,0.431,0.196,0.711C20.854,20.872,20.762,21.154,20.577,21.389z M18.75,0
		C8.411,0,0,8.411,0,18.75S8.411,37.5,18.75,37.5S37.5,29.089,37.5,18.75S29.089,0,18.75,0z M33.277,27.053h-4.114
		c-0.784-2.393-1.226-5.062-1.274-7.803h7.586C35.391,22.083,34.605,24.739,33.277,27.053z M18.25,35.475
		c-4.081-0.121-7.792-1.705-10.638-4.25c0.554-0.979,1.039-2.041,1.448-3.172h9.19V35.475z M19.25,28.053h9.186
		c0.41,1.125,0.898,2.184,1.459,3.168c-2.849,2.547-6.562,4.133-10.645,4.254V28.053z M9.383,27.053
		c0.8-2.556,1.244-5.387,1.244-8.303c0-2.941-0.435-5.758-1.232-8.303h18.71c-0.799,2.543-1.232,5.358-1.232,8.303
		c0,2.943,0.436,5.759,1.232,8.303H9.383z M2.025,19.25H9.61c-0.048,2.754-0.493,5.415-1.276,7.803H4.222
		C2.895,24.739,2.109,22.083,2.025,19.25z M4.223,10.447h4.115c0.784,2.394,1.226,5.062,1.274,7.803H2.026
		C2.109,15.417,2.895,12.761,4.223,10.447z M19.25,2.025c4.083,0.121,7.795,1.707,10.643,4.254c-0.56,0.984-1.047,2.042-1.457,3.168
		H19.25V2.025z M18.25,9.447H9.062C8.653,8.322,8.165,7.263,7.605,6.28c2.847-2.547,6.561-4.134,10.644-4.255L18.25,9.447
		L18.25,9.447z M27.889,18.25c0.049-2.742,0.491-5.41,1.275-7.803h4.113c1.328,2.312,2.113,4.969,2.197,7.803H27.889z M32.669,9.447
		H29.52c0.332-0.871,0.703-1.704,1.125-2.475C31.395,7.73,32.073,8.559,32.669,9.447z M6.854,6.975
		c0.422,0.771,0.794,1.602,1.125,2.472H4.831C5.426,8.56,6.104,7.732,6.854,6.975z M4.831,28.053h3.157
		c-0.332,0.871-0.712,1.697-1.136,2.469C6.103,29.766,5.425,28.939,4.831,28.053z M30.645,30.525
		c-0.422-0.771-0.793-1.604-1.125-2.475h3.149C32.074,28.941,31.395,29.77,30.645,30.525z"/>
</g>
<g>
</g>
<g>
</g>
<g>
</g>
<g>
</g>
<g>
</g>
<g>
</g>
<g>
</g>
<g>
</g>
<g>
</g>
<g>
</g>
<g>
</g>
<g>
</g>
<g>
</g>
<g>
</g>
<g>
</g>
</svg>
