<?xml version="1.0" encoding="iso-8859-1"?>
<!-- Generator: Adobe Illustrator 19.0.0, SVG Export Plug-In . SVG Version: 6.00 Build 0)  -->
<svg version="1.1" id="Capa_1" xmlns="http://www.w3.org/2000/svg" xmlns:xlink="http://www.w3.org/1999/xlink" x="0px" y="0px"
	 viewBox="0 0 512 512" style="enable-background:new 0 0 512 512;" xml:space="preserve">
<g>
	<g>
		<path d="M341.777,129.768c-69.837,0-126.653,56.817-126.653,126.653c0,69.837,56.817,126.653,126.654,126.653
			S468.43,326.258,468.43,256.42S411.614,129.768,341.777,129.768z M341.778,366.904c-60.922,0-110.485-49.563-110.485-110.484
			c0-60.922,49.564-110.484,110.485-110.484c60.92,0,110.484,49.563,110.484,110.484
			C452.262,317.342,402.699,366.904,341.778,366.904z"/>
	</g>
</g>
<g>
	<g>
		<path d="M503.916,153.88c4.466,0,8.084-3.618,8.084-8.084v-31.459c0-20.619-16.774-37.394-37.393-37.394H37.393
			C16.775,76.942,0,93.716,0,114.336v283.326c0,20.62,16.775,37.395,37.393,37.395h437.214c20.619,0,37.393-16.775,37.393-37.395
			V172.026c0-4.466-3.618-8.084-8.084-8.084c-4.466,0-8.084,3.618-8.084,8.084v225.637c0,11.705-9.522,21.227-21.225,21.227H37.393
			c-11.704,0-21.225-9.522-21.225-21.227V114.336c0-11.704,9.521-21.226,21.225-21.226h437.214c11.703,0,21.225,9.522,21.225,21.226
			v31.459C495.832,150.261,499.45,153.88,503.916,153.88z"/>
	</g>
</g>
<g>
	<g>
		<path d="M311.329,243.018c0.539,0,1.074,0.536,1.608,0.536C312.403,243.018,311.868,243.018,311.329,243.018z"/>
	</g>
</g>
<g>
	<g>
		<path d="M333.296,260.156l-7.499,31.067c5.244,1.165,16.348,4.549,26.08,4.549c8.157,0,15.347-2.379,17.303-10.439
			C373.467,267.118,342.935,262.833,333.296,260.156z"/>
	</g>
</g>
<g>
	<g>
		<path d="M405.832,208.404c-3.929-3.781-8.817-7.099-14.775-10.011l2.355-9.215c2.194-8.575-2.916-17.319-11.461-19.619
			l-13.929-3.749c-1.381-0.373-2.794-0.556-4.202-0.556c-0.556,0-1.109,0.028-1.661,0.085c-1.444-0.973-3.072-1.729-4.846-2.208
			l-13.926-3.749c-1.381-0.372-2.794-0.555-4.201-0.555c-2.843,0-5.66,0.749-8.156,2.208c-3.735,2.181-6.438,5.766-7.51,9.953
			l-1.937,7.575l-12.758-3.188c-1.316-0.33-2.635-0.487-3.934-0.487c-7.245,0-13.836,4.904-15.672,12.25l-3.75,14.996
			c-2.147,8.586,3.008,17.303,11.566,19.558l2.697,0.709l-4.099,16.741c0,0.001-0.002,0.003-0.002,0.005l-6.311,25.62
			c-1.234-0.29-2.476-0.43-3.701-0.43c-6.313-0.001-12.221,3.714-14.832,9.741l-6.964,16.071c-1.873,4.322-1.769,9.245,0.289,13.484
			c2.055,4.238,5.857,7.37,10.41,8.575l12.966,3.432l-2.019,8.083c-2.139,8.553,2.969,17.241,11.482,19.534l13.926,3.749
			c1.381,0.373,2.796,0.556,4.202,0.556c0.711,0,1.423-0.047,2.127-0.14c1.312,0.895,2.777,1.61,4.369,2.101l13.926,4.286
			c1.555,0.478,3.158,0.715,4.756,0.715c2.756,0,5.497-0.705,7.943-2.086c3.867-2.181,6.666-5.855,7.744-10.161l2.408-9.635
			c2.122,0.144,4.148,0.216,6.088,0.216c29.527,0,41.733-17.349,46.771-31.97c5.195-14.394,4.364-27.363-2.05-37.755
			c4.285-5.557,7.086-12.484,8.164-20.503C419.329,229.402,415.359,217.571,405.832,208.404z M401.319,240.339
			c-1.606,12.318-8.57,18.749-18.213,20.89c12.857,6.429,19.282,16.604,12.857,34.281c-5.456,15.976-16.581,21.181-31.522,21.181
			c-5.595,0-11.724-0.731-18.293-1.898l-5.891,23.565l-13.926-4.285l5.891-23.03c-3.749-1.074-7.499-2.142-11.249-2.676
			l-5.893,23.031l-13.926-3.749l5.893-23.569c-3.214-1.07-6.427-1.603-10.179-2.677l-18.209-4.819l6.964-16.07l10.176,2.679
			c0.596,0.17,1.151,0.246,1.667,0.246c2.722,0,4.307-2.107,4.758-3.461l9.105-36.958l6.43-26.247c0-3.212-1.071-6.963-6.43-8.032
			l-10.176-2.68l3.75-14.996l19.282,4.82c2.682,0.536,5.895,1.607,9.109,2.145l5.891-23.034l13.927,3.748l-5.893,22.496
			c3.75,1.071,7.499,1.604,11.249,2.679l5.354-22.497l13.929,3.749l-5.893,23.032C390.604,214.094,403.994,223.198,401.319,240.339z
			"/>
	</g>
</g>
<g>
	<g>
		<path d="M344.004,217.841l-6.964,28.387c4.245,1.134,13.118,3.908,21.101,3.908c7.132,0,13.553-2.216,15.324-9.798
			C377.213,223.732,352.04,219.984,344.004,217.841z"/>
	</g>
</g>
<g>
	<g>
		<path d="M173.625,140.547H60.389c-4.465,0-8.084,3.618-8.084,8.084s3.62,8.084,8.084,8.084h113.236
			c4.465,0,8.084-3.62,8.084-8.084C181.709,144.166,178.09,140.547,173.625,140.547z"/>
	</g>
</g>
<g>
	<g>
		<path d="M173.625,176.117H60.389c-4.465,0-8.084,3.619-8.084,8.084c0,4.466,3.62,8.084,8.084,8.084h113.236
			c4.465,0,8.084-3.62,8.084-8.084S178.09,176.117,173.625,176.117z"/>
	</g>
</g>
<g>
</g>
<g>
</g>
<g>
</g>
<g>
</g>
<g>
</g>
<g>
</g>
<g>
</g>
<g>
</g>
<g>
</g>
<g>
</g>
<g>
</g>
<g>
</g>
<g>
</g>
<g>
</g>
<g>
</g>
</svg>
